<svg width="23" height="30" viewBox="0 0 23 30" fill="none" xmlns="http://www.w3.org/2000/svg">
<path d="M12.7122 0H9.85104C9.42665 0 9.05703 0.279992 8.93382 0.685979L0.0490233 28.5451C-0.156326 29.1891 0.309133 29.8471 0.966251 29.8471H3.9096C4.33398 29.8471 4.7173 29.5531 4.84051 29.1331L6.62021 22.9873L10.3165 10.1917C10.5903 9.23972 11.9045 9.23972 12.1783 10.1917L14.6015 18.7454L17.5448 29.1191C17.668 29.5391 18.0513 29.8331 18.4757 29.8331H21.4191C22.0762 29.8331 22.5416 29.1751 22.3363 28.5451L13.6295 0.685979C13.5063 0.279992 13.1229 0 12.7122 0Z" fill="white"/>
<path d="M12.3883 24.6238H9.99889C9.42241 24.6238 8.95508 25.1691 8.95508 25.8416V28.6293C8.95508 29.3019 9.42241 29.8471 9.99889 29.8471H12.3883C12.9648 29.8471 13.4321 29.3019 13.4321 28.6293V25.8416C13.4321 25.1691 12.9648 24.6238 12.3883 24.6238Z" fill="white"/>
</svg>
